<mxfile host="app.diagrams.net" agent="Mozilla/5.0 (Macintosh; Intel Mac OS X 10_15_7) AppleWebKit/537.36 (KHTML, like Gecko) Chrome/138.0.0.0 Safari/537.36" version="28.1.0">
  <diagram name="Page-1" id="BJXSc9btZw7n0VWghUmb">
    <mxGraphModel dx="1351" dy="784" grid="1" gridSize="10" guides="1" tooltips="1" connect="1" arrows="1" fold="1" page="1" pageScale="1" pageWidth="850" pageHeight="1100" math="0" shadow="0">
      <root>
        <mxCell id="0" />
        <mxCell id="1" parent="0" />
        <mxCell id="ApfGCJX9qOZaHFeOPQHu-1" value="" style="image;aspect=fixed;html=1;points=[];align=center;fontSize=12;image=img/lib/azure2/networking/Virtual_Router.svg;" vertex="1" parent="1">
          <mxGeometry x="190" y="260" width="68" height="68" as="geometry" />
        </mxCell>
        <mxCell id="ApfGCJX9qOZaHFeOPQHu-2" value="" style="image;aspect=fixed;html=1;points=[];align=center;fontSize=12;image=img/lib/azure2/networking/Spot_VM.svg;" vertex="1" parent="1">
          <mxGeometry x="112" y="472.2" width="68" height="62.8" as="geometry" />
        </mxCell>
        <mxCell id="ApfGCJX9qOZaHFeOPQHu-3" value="" style="image;aspect=fixed;html=1;points=[];align=center;fontSize=12;image=img/lib/azure2/networking/Virtual_Router.svg;" vertex="1" parent="1">
          <mxGeometry x="207" y="62" width="68" height="68" as="geometry" />
        </mxCell>
        <mxCell id="ApfGCJX9qOZaHFeOPQHu-4" value="" style="image;aspect=fixed;html=1;points=[];align=center;fontSize=12;image=img/lib/azure2/networking/Virtual_Router.svg;" vertex="1" parent="1">
          <mxGeometry x="506" y="62" width="68" height="68" as="geometry" />
        </mxCell>
        <mxCell id="ApfGCJX9qOZaHFeOPQHu-5" value="" style="image;aspect=fixed;html=1;points=[];align=center;fontSize=12;image=img/lib/azure2/networking/Virtual_Router.svg;" vertex="1" parent="1">
          <mxGeometry x="360" y="260" width="68" height="68" as="geometry" />
        </mxCell>
        <mxCell id="ApfGCJX9qOZaHFeOPQHu-6" value="" style="image;aspect=fixed;html=1;points=[];align=center;fontSize=12;image=img/lib/azure2/networking/Virtual_Router.svg;" vertex="1" parent="1">
          <mxGeometry x="518" y="260" width="68" height="68" as="geometry" />
        </mxCell>
        <mxCell id="ApfGCJX9qOZaHFeOPQHu-7" value="" style="image;aspect=fixed;html=1;points=[];align=center;fontSize=12;image=img/lib/azure2/networking/Spot_VM.svg;" vertex="1" parent="1">
          <mxGeometry x="350" y="472.2" width="68" height="62.8" as="geometry" />
        </mxCell>
        <mxCell id="ApfGCJX9qOZaHFeOPQHu-8" value="" style="image;aspect=fixed;html=1;points=[];align=center;fontSize=12;image=img/lib/azure2/networking/Spot_VM.svg;" vertex="1" parent="1">
          <mxGeometry x="650" y="472.2" width="68" height="62.8" as="geometry" />
        </mxCell>
        <mxCell id="ApfGCJX9qOZaHFeOPQHu-9" value="" style="image;aspect=fixed;html=1;points=[];align=center;fontSize=12;image=img/lib/azure2/networking/Spot_VM.svg;" vertex="1" parent="1">
          <mxGeometry x="484" y="472.2" width="68" height="62.8" as="geometry" />
        </mxCell>
        <mxCell id="ApfGCJX9qOZaHFeOPQHu-13" value="" style="endArrow=none;html=1;rounded=0;" edge="1" parent="1" target="ApfGCJX9qOZaHFeOPQHu-1">
          <mxGeometry width="50" height="50" relative="1" as="geometry">
            <mxPoint x="210.81632653061217" y="328" as="sourcePoint" />
            <mxPoint x="450" y="340" as="targetPoint" />
          </mxGeometry>
        </mxCell>
        <mxCell id="ApfGCJX9qOZaHFeOPQHu-14" value="" style="endArrow=none;html=1;rounded=0;" edge="1" parent="1" source="ApfGCJX9qOZaHFeOPQHu-81" target="ApfGCJX9qOZaHFeOPQHu-3">
          <mxGeometry width="50" height="50" relative="1" as="geometry">
            <mxPoint x="180" y="442" as="sourcePoint" />
            <mxPoint x="218" y="360" as="targetPoint" />
          </mxGeometry>
        </mxCell>
        <mxCell id="ApfGCJX9qOZaHFeOPQHu-15" value="" style="endArrow=none;html=1;rounded=0;" edge="1" parent="1" source="ApfGCJX9qOZaHFeOPQHu-89" target="ApfGCJX9qOZaHFeOPQHu-4">
          <mxGeometry width="50" height="50" relative="1" as="geometry">
            <mxPoint x="280" y="312" as="sourcePoint" />
            <mxPoint x="324" y="230" as="targetPoint" />
          </mxGeometry>
        </mxCell>
        <mxCell id="ApfGCJX9qOZaHFeOPQHu-16" value="" style="endArrow=none;html=1;rounded=0;" edge="1" parent="1" source="ApfGCJX9qOZaHFeOPQHu-99" target="ApfGCJX9qOZaHFeOPQHu-6">
          <mxGeometry width="50" height="50" relative="1" as="geometry">
            <mxPoint x="320" y="340" as="sourcePoint" />
            <mxPoint x="512" y="230" as="targetPoint" />
          </mxGeometry>
        </mxCell>
        <mxCell id="ApfGCJX9qOZaHFeOPQHu-17" value="" style="endArrow=none;html=1;rounded=0;" edge="1" parent="1" source="ApfGCJX9qOZaHFeOPQHu-97" target="ApfGCJX9qOZaHFeOPQHu-5">
          <mxGeometry width="50" height="50" relative="1" as="geometry">
            <mxPoint x="470" y="240" as="sourcePoint" />
            <mxPoint x="650" y="348" as="targetPoint" />
          </mxGeometry>
        </mxCell>
        <mxCell id="ApfGCJX9qOZaHFeOPQHu-18" value="" style="endArrow=none;html=1;rounded=0;" edge="1" parent="1" source="ApfGCJX9qOZaHFeOPQHu-95" target="ApfGCJX9qOZaHFeOPQHu-5">
          <mxGeometry width="50" height="50" relative="1" as="geometry">
            <mxPoint x="360" y="240" as="sourcePoint" />
            <mxPoint x="410" y="322" as="targetPoint" />
          </mxGeometry>
        </mxCell>
        <mxCell id="ApfGCJX9qOZaHFeOPQHu-19" value="" style="endArrow=none;html=1;rounded=0;" edge="1" parent="1" source="ApfGCJX9qOZaHFeOPQHu-101" target="ApfGCJX9qOZaHFeOPQHu-6">
          <mxGeometry width="50" height="50" relative="1" as="geometry">
            <mxPoint x="470" y="240" as="sourcePoint" />
            <mxPoint x="420" y="322" as="targetPoint" />
          </mxGeometry>
        </mxCell>
        <mxCell id="ApfGCJX9qOZaHFeOPQHu-20" value="" style="endArrow=none;html=1;rounded=0;" edge="1" parent="1" source="ApfGCJX9qOZaHFeOPQHu-40" target="ApfGCJX9qOZaHFeOPQHu-5">
          <mxGeometry width="50" height="50" relative="1" as="geometry">
            <mxPoint x="338" y="402" as="sourcePoint" />
            <mxPoint x="376" y="320" as="targetPoint" />
          </mxGeometry>
        </mxCell>
        <mxCell id="ApfGCJX9qOZaHFeOPQHu-21" value="" style="endArrow=none;html=1;rounded=0;" edge="1" parent="1" target="ApfGCJX9qOZaHFeOPQHu-6">
          <mxGeometry width="50" height="50" relative="1" as="geometry">
            <mxPoint x="547.1428571428571" y="328" as="sourcePoint" />
            <mxPoint x="528" y="350" as="targetPoint" />
          </mxGeometry>
        </mxCell>
        <mxCell id="ApfGCJX9qOZaHFeOPQHu-22" value="" style="endArrow=none;html=1;rounded=0;" edge="1" parent="1" target="ApfGCJX9qOZaHFeOPQHu-6">
          <mxGeometry width="50" height="50" relative="1" as="geometry">
            <mxPoint x="586.2439024390246" y="320.0000000000001" as="sourcePoint" />
            <mxPoint x="616" y="390" as="targetPoint" />
          </mxGeometry>
        </mxCell>
        <mxCell id="ApfGCJX9qOZaHFeOPQHu-23" value="SPINE-1" style="text;html=1;align=center;verticalAlign=middle;whiteSpace=wrap;rounded=0;" vertex="1" parent="1">
          <mxGeometry x="194" y="20" width="60" height="30" as="geometry" />
        </mxCell>
        <mxCell id="ApfGCJX9qOZaHFeOPQHu-24" value="SPINE-2" style="text;html=1;align=center;verticalAlign=middle;whiteSpace=wrap;rounded=0;" vertex="1" parent="1">
          <mxGeometry x="520" y="20" width="60" height="30" as="geometry" />
        </mxCell>
        <mxCell id="ApfGCJX9qOZaHFeOPQHu-25" value="LEAF-1" style="text;html=1;align=center;verticalAlign=middle;whiteSpace=wrap;rounded=0;" vertex="1" parent="1">
          <mxGeometry x="122" y="279" width="60" height="30" as="geometry" />
        </mxCell>
        <mxCell id="ApfGCJX9qOZaHFeOPQHu-26" value="LEAF-2" style="text;html=1;align=center;verticalAlign=middle;whiteSpace=wrap;rounded=0;" vertex="1" parent="1">
          <mxGeometry x="297" y="279" width="60" height="30" as="geometry" />
        </mxCell>
        <mxCell id="ApfGCJX9qOZaHFeOPQHu-27" value="LEAF-3" style="text;html=1;align=center;verticalAlign=middle;whiteSpace=wrap;rounded=0;" vertex="1" parent="1">
          <mxGeometry x="454" y="279" width="60" height="30" as="geometry" />
        </mxCell>
        <mxCell id="ApfGCJX9qOZaHFeOPQHu-28" value="HOST-1" style="text;html=1;align=center;verticalAlign=middle;whiteSpace=wrap;rounded=0;" vertex="1" parent="1">
          <mxGeometry x="124" y="535" width="60" height="30" as="geometry" />
        </mxCell>
        <mxCell id="ApfGCJX9qOZaHFeOPQHu-29" value="HOST-2" style="text;html=1;align=center;verticalAlign=middle;whiteSpace=wrap;rounded=0;" vertex="1" parent="1">
          <mxGeometry x="350" y="535" width="60" height="30" as="geometry" />
        </mxCell>
        <mxCell id="ApfGCJX9qOZaHFeOPQHu-30" value="HOST-3" style="text;html=1;align=center;verticalAlign=middle;whiteSpace=wrap;rounded=0;" vertex="1" parent="1">
          <mxGeometry x="488" y="535" width="60" height="30" as="geometry" />
        </mxCell>
        <mxCell id="ApfGCJX9qOZaHFeOPQHu-31" value="HOST-4" style="text;html=1;align=center;verticalAlign=middle;whiteSpace=wrap;rounded=0;" vertex="1" parent="1">
          <mxGeometry x="658" y="535" width="60" height="30" as="geometry" />
        </mxCell>
        <mxCell id="ApfGCJX9qOZaHFeOPQHu-40" value="&lt;div&gt;Eth1&lt;/div&gt;&lt;div&gt;172.16.2.1/24&lt;/div&gt;" style="text;html=1;align=center;verticalAlign=middle;resizable=0;points=[];autosize=1;strokeColor=none;fillColor=none;" vertex="1" parent="1">
          <mxGeometry x="344" y="348" width="100" height="40" as="geometry" />
        </mxCell>
        <mxCell id="ApfGCJX9qOZaHFeOPQHu-49" value="" style="endArrow=none;html=1;rounded=0;" edge="1" parent="1" source="ApfGCJX9qOZaHFeOPQHu-7" target="ApfGCJX9qOZaHFeOPQHu-48">
          <mxGeometry width="50" height="50" relative="1" as="geometry">
            <mxPoint x="391" y="410" as="sourcePoint" />
            <mxPoint x="391" y="358" as="targetPoint" />
          </mxGeometry>
        </mxCell>
        <mxCell id="ApfGCJX9qOZaHFeOPQHu-48" value="Eth1&lt;div&gt;172.16.2.2/24&lt;/div&gt;" style="text;html=1;align=center;verticalAlign=middle;resizable=0;points=[];autosize=1;strokeColor=none;fillColor=none;" vertex="1" parent="1">
          <mxGeometry x="334" y="422.2" width="100" height="40" as="geometry" />
        </mxCell>
        <mxCell id="ApfGCJX9qOZaHFeOPQHu-53" value="" style="endArrow=none;html=1;rounded=0;" edge="1" parent="1" source="ApfGCJX9qOZaHFeOPQHu-75" target="ApfGCJX9qOZaHFeOPQHu-6">
          <mxGeometry width="50" height="50" relative="1" as="geometry">
            <mxPoint x="628" y="427" as="sourcePoint" />
            <mxPoint x="669.6416938110749" y="457.20000000000005" as="targetPoint" />
          </mxGeometry>
        </mxCell>
        <mxCell id="ApfGCJX9qOZaHFeOPQHu-61" value="" style="endArrow=none;html=1;rounded=0;" edge="1" parent="1" source="ApfGCJX9qOZaHFeOPQHu-2">
          <mxGeometry width="50" height="50" relative="1" as="geometry">
            <mxPoint x="153" y="472" as="sourcePoint" />
            <mxPoint x="152.76724137931035" y="472.20000000000005" as="targetPoint" />
          </mxGeometry>
        </mxCell>
        <mxCell id="ApfGCJX9qOZaHFeOPQHu-64" value="" style="endArrow=none;html=1;rounded=0;" edge="1" parent="1" source="ApfGCJX9qOZaHFeOPQHu-40" target="ApfGCJX9qOZaHFeOPQHu-48">
          <mxGeometry width="50" height="50" relative="1" as="geometry">
            <mxPoint x="400" y="360" as="sourcePoint" />
            <mxPoint x="400" y="340" as="targetPoint" />
          </mxGeometry>
        </mxCell>
        <mxCell id="ApfGCJX9qOZaHFeOPQHu-65" value="" style="endArrow=none;html=1;rounded=0;" edge="1" parent="1" source="ApfGCJX9qOZaHFeOPQHu-66" target="ApfGCJX9qOZaHFeOPQHu-1">
          <mxGeometry width="50" height="50" relative="1" as="geometry">
            <mxPoint x="280" y="390" as="sourcePoint" />
            <mxPoint x="512" y="250" as="targetPoint" />
          </mxGeometry>
        </mxCell>
        <mxCell id="ApfGCJX9qOZaHFeOPQHu-67" value="" style="endArrow=none;html=1;rounded=0;" edge="1" parent="1" source="ApfGCJX9qOZaHFeOPQHu-68" target="ApfGCJX9qOZaHFeOPQHu-66">
          <mxGeometry width="50" height="50" relative="1" as="geometry">
            <mxPoint x="158" y="472" as="sourcePoint" />
            <mxPoint x="211" y="328" as="targetPoint" />
          </mxGeometry>
        </mxCell>
        <mxCell id="ApfGCJX9qOZaHFeOPQHu-66" value="&lt;div&gt;Eth1&lt;/div&gt;&lt;div&gt;172.16.1.1/24&lt;/div&gt;" style="text;html=1;align=center;verticalAlign=middle;resizable=0;points=[];autosize=1;strokeColor=none;fillColor=none;" vertex="1" parent="1">
          <mxGeometry x="150" y="339" width="100" height="40" as="geometry" />
        </mxCell>
        <mxCell id="ApfGCJX9qOZaHFeOPQHu-69" value="" style="endArrow=none;html=1;rounded=0;" edge="1" parent="1" source="ApfGCJX9qOZaHFeOPQHu-2" target="ApfGCJX9qOZaHFeOPQHu-68">
          <mxGeometry width="50" height="50" relative="1" as="geometry">
            <mxPoint x="158" y="472" as="sourcePoint" />
            <mxPoint x="193" y="379" as="targetPoint" />
          </mxGeometry>
        </mxCell>
        <mxCell id="ApfGCJX9qOZaHFeOPQHu-68" value="&lt;div&gt;Eth1&lt;/div&gt;&lt;div&gt;172.16.1.2/24&lt;/div&gt;" style="text;html=1;align=center;verticalAlign=middle;resizable=0;points=[];autosize=1;strokeColor=none;fillColor=none;" vertex="1" parent="1">
          <mxGeometry x="112" y="427.2" width="100" height="40" as="geometry" />
        </mxCell>
        <mxCell id="ApfGCJX9qOZaHFeOPQHu-71" value="" style="endArrow=none;html=1;rounded=0;" edge="1" parent="1" source="ApfGCJX9qOZaHFeOPQHu-73" target="ApfGCJX9qOZaHFeOPQHu-9">
          <mxGeometry width="50" height="50" relative="1" as="geometry">
            <mxPoint x="480" y="240" as="sourcePoint" />
            <mxPoint x="700" y="378" as="targetPoint" />
          </mxGeometry>
        </mxCell>
        <mxCell id="ApfGCJX9qOZaHFeOPQHu-72" value="" style="endArrow=none;html=1;rounded=0;" edge="1" parent="1" source="ApfGCJX9qOZaHFeOPQHu-6" target="ApfGCJX9qOZaHFeOPQHu-70">
          <mxGeometry width="50" height="50" relative="1" as="geometry">
            <mxPoint x="546" y="328" as="sourcePoint" />
            <mxPoint x="523" y="472" as="targetPoint" />
          </mxGeometry>
        </mxCell>
        <mxCell id="ApfGCJX9qOZaHFeOPQHu-70" value="&lt;div&gt;Eth1&lt;/div&gt;&lt;div&gt;172.16.3.1/24&lt;/div&gt;" style="text;html=1;align=center;verticalAlign=middle;resizable=0;points=[];autosize=1;strokeColor=none;fillColor=none;" vertex="1" parent="1">
          <mxGeometry x="481" y="348" width="100" height="40" as="geometry" />
        </mxCell>
        <mxCell id="ApfGCJX9qOZaHFeOPQHu-74" value="" style="endArrow=none;html=1;rounded=0;" edge="1" parent="1" source="ApfGCJX9qOZaHFeOPQHu-70" target="ApfGCJX9qOZaHFeOPQHu-73">
          <mxGeometry width="50" height="50" relative="1" as="geometry">
            <mxPoint x="529" y="388" as="sourcePoint" />
            <mxPoint x="521" y="472" as="targetPoint" />
          </mxGeometry>
        </mxCell>
        <mxCell id="ApfGCJX9qOZaHFeOPQHu-73" value="&lt;div&gt;Eth1&lt;/div&gt;&lt;div&gt;172.16.3.2/24&lt;/div&gt;" style="text;html=1;align=center;verticalAlign=middle;resizable=0;points=[];autosize=1;strokeColor=none;fillColor=none;" vertex="1" parent="1">
          <mxGeometry x="470" y="427.2" width="100" height="40" as="geometry" />
        </mxCell>
        <mxCell id="ApfGCJX9qOZaHFeOPQHu-76" value="" style="endArrow=none;html=1;rounded=0;" edge="1" parent="1" source="ApfGCJX9qOZaHFeOPQHu-77" target="ApfGCJX9qOZaHFeOPQHu-75">
          <mxGeometry width="50" height="50" relative="1" as="geometry">
            <mxPoint x="664" y="472" as="sourcePoint" />
            <mxPoint x="573" y="328" as="targetPoint" />
          </mxGeometry>
        </mxCell>
        <mxCell id="ApfGCJX9qOZaHFeOPQHu-75" value="&lt;div&gt;Eth2&lt;/div&gt;&lt;div&gt;172.16.4.1/24&lt;/div&gt;" style="text;html=1;align=center;verticalAlign=middle;resizable=0;points=[];autosize=1;strokeColor=none;fillColor=none;" vertex="1" parent="1">
          <mxGeometry x="558" y="339" width="100" height="40" as="geometry" />
        </mxCell>
        <mxCell id="ApfGCJX9qOZaHFeOPQHu-78" value="" style="endArrow=none;html=1;rounded=0;" edge="1" parent="1" source="ApfGCJX9qOZaHFeOPQHu-8" target="ApfGCJX9qOZaHFeOPQHu-77">
          <mxGeometry width="50" height="50" relative="1" as="geometry">
            <mxPoint x="666" y="472" as="sourcePoint" />
            <mxPoint x="613" y="379" as="targetPoint" />
          </mxGeometry>
        </mxCell>
        <mxCell id="ApfGCJX9qOZaHFeOPQHu-77" value="&lt;div&gt;Eth1&lt;/div&gt;&lt;div&gt;172.16.4.2/24&lt;/div&gt;" style="text;html=1;align=center;verticalAlign=middle;resizable=0;points=[];autosize=1;strokeColor=none;fillColor=none;" vertex="1" parent="1">
          <mxGeometry x="600" y="422.2" width="100" height="40" as="geometry" />
        </mxCell>
        <mxCell id="ApfGCJX9qOZaHFeOPQHu-80" value="" style="endArrow=none;html=1;rounded=0;" edge="1" parent="1" source="ApfGCJX9qOZaHFeOPQHu-1" target="ApfGCJX9qOZaHFeOPQHu-79">
          <mxGeometry width="50" height="50" relative="1" as="geometry">
            <mxPoint x="232" y="260" as="sourcePoint" />
            <mxPoint x="256" y="148" as="targetPoint" />
          </mxGeometry>
        </mxCell>
        <mxCell id="ApfGCJX9qOZaHFeOPQHu-79" value="&lt;div&gt;Eth8&lt;/div&gt;&lt;div&gt;10.1.1.2/30&lt;/div&gt;" style="text;html=1;align=center;verticalAlign=middle;resizable=0;points=[];autosize=1;strokeColor=none;fillColor=none;" vertex="1" parent="1">
          <mxGeometry x="184" y="210" width="80" height="40" as="geometry" />
        </mxCell>
        <mxCell id="ApfGCJX9qOZaHFeOPQHu-82" value="" style="endArrow=none;html=1;rounded=0;" edge="1" parent="1" source="ApfGCJX9qOZaHFeOPQHu-79" target="ApfGCJX9qOZaHFeOPQHu-81">
          <mxGeometry width="50" height="50" relative="1" as="geometry">
            <mxPoint x="231" y="210" as="sourcePoint" />
            <mxPoint x="252" y="148" as="targetPoint" />
          </mxGeometry>
        </mxCell>
        <mxCell id="ApfGCJX9qOZaHFeOPQHu-81" value="&lt;div&gt;Eth1&lt;/div&gt;&lt;div&gt;10.1.1.1/30&lt;/div&gt;" style="text;html=1;align=center;verticalAlign=middle;resizable=0;points=[];autosize=1;strokeColor=none;fillColor=none;" vertex="1" parent="1">
          <mxGeometry x="190" y="160" width="80" height="40" as="geometry" />
        </mxCell>
        <mxCell id="ApfGCJX9qOZaHFeOPQHu-84" value="" style="endArrow=none;html=1;rounded=0;" edge="1" parent="1" source="ApfGCJX9qOZaHFeOPQHu-3" target="ApfGCJX9qOZaHFeOPQHu-83">
          <mxGeometry width="50" height="50" relative="1" as="geometry">
            <mxPoint x="289" y="148" as="sourcePoint" />
            <mxPoint x="369" y="260" as="targetPoint" />
          </mxGeometry>
        </mxCell>
        <mxCell id="ApfGCJX9qOZaHFeOPQHu-83" value="&lt;div&gt;Eth2&lt;/div&gt;&lt;div&gt;10.1.1.5/30&lt;/div&gt;" style="text;html=1;align=center;verticalAlign=middle;resizable=0;points=[];autosize=1;strokeColor=none;fillColor=none;" vertex="1" parent="1">
          <mxGeometry x="258" y="160" width="80" height="40" as="geometry" />
        </mxCell>
        <mxCell id="ApfGCJX9qOZaHFeOPQHu-86" value="" style="endArrow=none;html=1;rounded=0;" edge="1" parent="1" source="ApfGCJX9qOZaHFeOPQHu-3" target="ApfGCJX9qOZaHFeOPQHu-85">
          <mxGeometry width="50" height="50" relative="1" as="geometry">
            <mxPoint x="298" y="135" as="sourcePoint" />
            <mxPoint x="518" y="273" as="targetPoint" />
          </mxGeometry>
        </mxCell>
        <mxCell id="ApfGCJX9qOZaHFeOPQHu-85" value="&lt;div&gt;Eth3&lt;/div&gt;&lt;div&gt;10.1.1.9/30&lt;/div&gt;" style="text;html=1;align=center;verticalAlign=middle;resizable=0;points=[];autosize=1;strokeColor=none;fillColor=none;" vertex="1" parent="1">
          <mxGeometry x="300" y="130" width="80" height="40" as="geometry" />
        </mxCell>
        <mxCell id="ApfGCJX9qOZaHFeOPQHu-88" value="" style="endArrow=none;html=1;rounded=0;" edge="1" parent="1" source="ApfGCJX9qOZaHFeOPQHu-1" target="ApfGCJX9qOZaHFeOPQHu-87">
          <mxGeometry width="50" height="50" relative="1" as="geometry">
            <mxPoint x="258" y="274" as="sourcePoint" />
            <mxPoint x="490" y="134" as="targetPoint" />
          </mxGeometry>
        </mxCell>
        <mxCell id="ApfGCJX9qOZaHFeOPQHu-87" value="&lt;div&gt;Eth9&lt;/div&gt;&lt;div&gt;10.1.2.2/30&lt;/div&gt;" style="text;html=1;align=center;verticalAlign=middle;resizable=0;points=[];autosize=1;strokeColor=none;fillColor=none;" vertex="1" parent="1">
          <mxGeometry x="240" y="239" width="80" height="40" as="geometry" />
        </mxCell>
        <mxCell id="ApfGCJX9qOZaHFeOPQHu-90" value="" style="endArrow=none;html=1;rounded=0;" edge="1" parent="1" source="ApfGCJX9qOZaHFeOPQHu-87" target="ApfGCJX9qOZaHFeOPQHu-89">
          <mxGeometry width="50" height="50" relative="1" as="geometry">
            <mxPoint x="314" y="239" as="sourcePoint" />
            <mxPoint x="490" y="134" as="targetPoint" />
          </mxGeometry>
        </mxCell>
        <mxCell id="ApfGCJX9qOZaHFeOPQHu-89" value="&lt;div&gt;Eth1&lt;/div&gt;&lt;div&gt;10.1.2.1/30&lt;/div&gt;" style="text;html=1;align=center;verticalAlign=middle;resizable=0;points=[];autosize=1;strokeColor=none;fillColor=none;" vertex="1" parent="1">
          <mxGeometry x="410" y="120" width="80" height="40" as="geometry" />
        </mxCell>
        <mxCell id="ApfGCJX9qOZaHFeOPQHu-92" value="" style="endArrow=none;html=1;rounded=0;" edge="1" parent="1" source="ApfGCJX9qOZaHFeOPQHu-4" target="ApfGCJX9qOZaHFeOPQHu-91">
          <mxGeometry width="50" height="50" relative="1" as="geometry">
            <mxPoint x="499" y="148" as="sourcePoint" />
            <mxPoint x="419" y="260" as="targetPoint" />
          </mxGeometry>
        </mxCell>
        <mxCell id="ApfGCJX9qOZaHFeOPQHu-91" value="&lt;div&gt;Eth2&lt;/div&gt;&lt;div&gt;10.1.2.5/30&lt;/div&gt;" style="text;html=1;align=center;verticalAlign=middle;resizable=0;points=[];autosize=1;strokeColor=none;fillColor=none;" vertex="1" parent="1">
          <mxGeometry x="434" y="160" width="80" height="40" as="geometry" />
        </mxCell>
        <mxCell id="ApfGCJX9qOZaHFeOPQHu-94" value="" style="endArrow=none;html=1;rounded=0;" edge="1" parent="1" source="ApfGCJX9qOZaHFeOPQHu-4" target="ApfGCJX9qOZaHFeOPQHu-93">
          <mxGeometry width="50" height="50" relative="1" as="geometry">
            <mxPoint x="529" y="148" as="sourcePoint" />
            <mxPoint x="547" y="260" as="targetPoint" />
          </mxGeometry>
        </mxCell>
        <mxCell id="ApfGCJX9qOZaHFeOPQHu-93" value="&lt;div&gt;Eth3&lt;/div&gt;&lt;div&gt;10.1.2.9/30&lt;/div&gt;" style="text;html=1;align=center;verticalAlign=middle;resizable=0;points=[];autosize=1;strokeColor=none;fillColor=none;" vertex="1" parent="1">
          <mxGeometry x="506" y="160" width="80" height="40" as="geometry" />
        </mxCell>
        <mxCell id="ApfGCJX9qOZaHFeOPQHu-96" value="" style="endArrow=none;html=1;rounded=0;" edge="1" parent="1" source="ApfGCJX9qOZaHFeOPQHu-91" target="ApfGCJX9qOZaHFeOPQHu-95">
          <mxGeometry width="50" height="50" relative="1" as="geometry">
            <mxPoint x="460" y="200" as="sourcePoint" />
            <mxPoint x="418" y="260" as="targetPoint" />
          </mxGeometry>
        </mxCell>
        <mxCell id="ApfGCJX9qOZaHFeOPQHu-95" value="&lt;div&gt;Eth9&lt;/div&gt;&lt;div&gt;10.1.2.6/30&lt;/div&gt;" style="text;html=1;align=center;verticalAlign=middle;resizable=0;points=[];autosize=1;strokeColor=none;fillColor=none;" vertex="1" parent="1">
          <mxGeometry x="385" y="230" width="80" height="40" as="geometry" />
        </mxCell>
        <mxCell id="ApfGCJX9qOZaHFeOPQHu-98" value="" style="endArrow=none;html=1;rounded=0;" edge="1" parent="1" source="ApfGCJX9qOZaHFeOPQHu-83" target="ApfGCJX9qOZaHFeOPQHu-97">
          <mxGeometry width="50" height="50" relative="1" as="geometry">
            <mxPoint x="320" y="200" as="sourcePoint" />
            <mxPoint x="367" y="260" as="targetPoint" />
          </mxGeometry>
        </mxCell>
        <mxCell id="ApfGCJX9qOZaHFeOPQHu-97" value="&lt;div&gt;Eth8&lt;/div&gt;&lt;div&gt;10.1.1.6/30&lt;/div&gt;" style="text;html=1;align=center;verticalAlign=middle;resizable=0;points=[];autosize=1;strokeColor=none;fillColor=none;" vertex="1" parent="1">
          <mxGeometry x="310" y="230" width="80" height="40" as="geometry" />
        </mxCell>
        <mxCell id="ApfGCJX9qOZaHFeOPQHu-100" value="" style="endArrow=none;html=1;rounded=0;" edge="1" parent="1" source="ApfGCJX9qOZaHFeOPQHu-85" target="ApfGCJX9qOZaHFeOPQHu-99">
          <mxGeometry width="50" height="50" relative="1" as="geometry">
            <mxPoint x="399" y="188" as="sourcePoint" />
            <mxPoint x="518" y="270" as="targetPoint" />
          </mxGeometry>
        </mxCell>
        <mxCell id="ApfGCJX9qOZaHFeOPQHu-99" value="&lt;div&gt;Eth8&lt;/div&gt;&lt;div&gt;10.1.1.10/30&lt;/div&gt;" style="text;html=1;align=center;verticalAlign=middle;resizable=0;points=[];autosize=1;strokeColor=none;fillColor=none;" vertex="1" parent="1">
          <mxGeometry x="454" y="230" width="90" height="40" as="geometry" />
        </mxCell>
        <mxCell id="ApfGCJX9qOZaHFeOPQHu-102" value="" style="endArrow=none;html=1;rounded=0;" edge="1" parent="1" source="ApfGCJX9qOZaHFeOPQHu-93" target="ApfGCJX9qOZaHFeOPQHu-101">
          <mxGeometry width="50" height="50" relative="1" as="geometry">
            <mxPoint x="542" y="210" as="sourcePoint" />
            <mxPoint x="548" y="260" as="targetPoint" />
          </mxGeometry>
        </mxCell>
        <mxCell id="ApfGCJX9qOZaHFeOPQHu-101" value="&lt;div&gt;Eth9&lt;/div&gt;&lt;div&gt;10.1.2.10/30&lt;/div&gt;" style="text;html=1;align=center;verticalAlign=middle;resizable=0;points=[];autosize=1;strokeColor=none;fillColor=none;" vertex="1" parent="1">
          <mxGeometry x="507" y="220" width="90" height="40" as="geometry" />
        </mxCell>
      </root>
    </mxGraphModel>
  </diagram>
</mxfile>
